HIERARCHY
ROOT hip
{
  OFFSET 0 90.174 2.4664
  CHANNELS 6 Xposition Yposition Zposition Zrotation Xrotation Yrotation
  JOINT abdomen
  {
    OFFSET 0 -1.186 -1.5018
    CHANNELS 6 Xposition Yposition Zposition Zrotation Xrotation Yrotation
    JOINT abdomen2
    {
      OFFSET 0 9.964 0.2134
      CHANNELS 6 Xposition Yposition Zposition Zrotation Xrotation Yrotation
      JOINT chest
      {
        OFFSET 0 13.134 -3.2573
        CHANNELS 6 Xposition Yposition Zposition Zrotation Xrotation Yrotation
        JOINT neck
        {
          OFFSET 0 20.686 -1.6905
          CHANNELS 6 Xposition Yposition Zposition Zrotation Xrotation Yrotation
          JOINT head
          {
            OFFSET 0 7.238 -0.1237
            CHANNELS 6 Xposition Yposition Zposition Zrotation Xrotation Yrotation
            End Site
            {
              OFFSET 0 0 0
            }
          }
        }
        JOINT lCollar
        {
          OFFSET 1.7069 20.075 5.0056
          CHANNELS 6 Xposition Yposition Zposition Zrotation Xrotation Yrotation
          JOINT lShldr
          {
            OFFSET 13.6458 -0.047 -4.849
            CHANNELS 6 Xposition Yposition Zposition Zrotation Xrotation Yrotation
            JOINT lForeArm
            {
              OFFSET 28.3255 -0.9759 2.2888
              CHANNELS 6 Xposition Yposition Zposition Zrotation Xrotation Yrotation
              JOINT lHand
              {
                OFFSET 22.1583 -0.53 10.8316
                CHANNELS 6 Xposition Yposition Zposition Zrotation Xrotation Yrotation
                JOINT lThumb1
                {
                  OFFSET 0.786 0.112 2.5817
                  CHANNELS 6 Xposition Yposition Zposition Zrotation Xrotation Yrotation
                  JOINT lThumb2
                  {
                    OFFSET 0.3601 -0.878 4.2331
                    CHANNELS 6 Xposition Yposition Zposition Zrotation Xrotation Yrotation
                    JOINT lThumb2_End
                    {
                      OFFSET 1.8127 -1.216 2.2227
                      CHANNELS 6 Xposition Yposition Zposition Zrotation Xrotation Yrotation
                      End Site
                      {
                        OFFSET 0.0181 -0.0122 0.0222
                      }
                    }
                  }
                }
                JOINT lCarpal1
                {
                  OFFSET 0.9571 1.114 1.7695
                  CHANNELS 6 Xposition Yposition Zposition Zrotation Xrotation Yrotation
                  JOINT lIndex1
                  {
                    OFFSET 4.1246 0.487 4.1451
                    CHANNELS 6 Xposition Yposition Zposition Zrotation Xrotation Yrotation
                    JOINT lIndex2
                    {
                      OFFSET 3.4052 -1.454 2.7682
                      CHANNELS 6 Xposition Yposition Zposition Zrotation Xrotation Yrotation
                      JOINT lIndex2_End
                      {
                        OFFSET 1.4531 -1.795 1.2713
                        CHANNELS 6 Xposition Yposition Zposition Zrotation Xrotation Yrotation
                        End Site
                        {
                          OFFSET 0.0145 -0.0179 0.0127
                        }
                      }
                    }
                  }
                  JOINT lMid1
                  {
                    OFFSET 5.6954 0.21 2.1184
                    CHANNELS 6 Xposition Yposition Zposition Zrotation Xrotation Yrotation
                    JOINT lMid2
                    {
                      OFFSET 3.9766 -1.54 2.3863
                      CHANNELS 6 Xposition Yposition Zposition Zrotation Xrotation Yrotation
                      JOINT lMid2_End
                      {
                        OFFSET 1.4042 -1.926 1.125
                        CHANNELS 6 Xposition Yposition Zposition Zrotation Xrotation Yrotation
                        End Site
                        {
                          OFFSET 0.014 -0.0193 0.0113
                        }
                      }
                    }
                  }
                }
                JOINT lCarpal2
                {
                  OFFSET 2.0956 0.66 -0.3894
                  CHANNELS 6 Xposition Yposition Zposition Zrotation Xrotation Yrotation
                  JOINT lRing1
                  {
                    OFFSET 5.0395 -0.09 2.4971
                    CHANNELS 6 Xposition Yposition Zposition Zrotation Xrotation Yrotation
                    JOINT lRing2
                    {
                      OFFSET 3.7921 -1.552 1.4806
                      CHANNELS 6 Xposition Yposition Zposition Zrotation Xrotation Yrotation
                      JOINT lRing2_End
                      {
                        OFFSET 1.4655 -1.808 0.9609
                        CHANNELS 6 Xposition Yposition Zposition Zrotation Xrotation Yrotation
                        End Site
                        {
                          OFFSET 0.0147 -0.0181 0.0096
                        }
                      }
                    }
                  }
                  JOINT lPinky1
                  {
                    OFFSET 4.9141 -1.269 0.3591
                    CHANNELS 6 Xposition Yposition Zposition Zrotation Xrotation Yrotation
                    JOINT lPinky2
                    {
                      OFFSET 3.1477 -1.685 0.8462
                      CHANNELS 6 Xposition Yposition Zposition Zrotation Xrotation Yrotation
                      JOINT lPinky2_End
                      {
                        OFFSET 0.8055 -1.585 0.7955
                        CHANNELS 6 Xposition Yposition Zposition Zrotation Xrotation Yrotation
                        End Site
                        {
                          OFFSET 0.0081 -0.0158 0.008
                        }
                      }
                    }
                  }
                }
              }
            }
          }
        }
        JOINT rCollar
        {
          OFFSET -1.7069 20.075 5.0056
          CHANNELS 6 Xposition Yposition Zposition Zrotation Xrotation Yrotation
          JOINT rShldr
          {
            OFFSET -13.6458 -0.047 -4.849
            CHANNELS 6 Xposition Yposition Zposition Zrotation Xrotation Yrotation
            JOINT rForeArm
            {
              OFFSET -28.3255 -0.9759 2.2888
              CHANNELS 6 Xposition Yposition Zposition Zrotation Xrotation Yrotation
              JOINT rHand
              {
                OFFSET -22.1583 -0.53 10.8316
                CHANNELS 6 Xposition Yposition Zposition Zrotation Xrotation Yrotation
                JOINT rThumb1
                {
                  OFFSET -0.786 0.112 2.5817
                  CHANNELS 6 Xposition Yposition Zposition Zrotation Xrotation Yrotation
                  JOINT rThumb2
                  {
                    OFFSET -0.3601 -0.878 4.2331
                    CHANNELS 6 Xposition Yposition Zposition Zrotation Xrotation Yrotation
                    JOINT rThumb2_End
                    {
                      OFFSET -1.8127 -1.216 2.2227
                      CHANNELS 6 Xposition Yposition Zposition Zrotation Xrotation Yrotation
                      End Site
                      {
                        OFFSET -0.0181 -0.0122 0.0222
                      }
                    }
                  }
                }
                JOINT rCarpal1
                {
                  OFFSET -0.9571 1.114 1.7695
                  CHANNELS 6 Xposition Yposition Zposition Zrotation Xrotation Yrotation
                  JOINT rIndex1
                  {
                    OFFSET -4.1246 0.487 4.1451
                    CHANNELS 6 Xposition Yposition Zposition Zrotation Xrotation Yrotation
                    JOINT rIndex2
                    {
                      OFFSET -3.4052 -1.454 2.7682
                      CHANNELS 6 Xposition Yposition Zposition Zrotation Xrotation Yrotation
                      JOINT rIndex2_End
                      {
                        OFFSET -1.4531 -1.795 1.2713
                        CHANNELS 6 Xposition Yposition Zposition Zrotation Xrotation Yrotation
                        End Site
                        {
                          OFFSET -0.0145 -0.018 0.0127
                        }
                      }
                    }
                  }
                  JOINT rMid1
                  {
                    OFFSET -5.6954 0.21 2.1184
                    CHANNELS 6 Xposition Yposition Zposition Zrotation Xrotation Yrotation
                    JOINT rMid2
                    {
                      OFFSET -3.9766 -1.54 2.3863
                      CHANNELS 6 Xposition Yposition Zposition Zrotation Xrotation Yrotation
                      JOINT rMid2_End
                      {
                        OFFSET -1.4042 -1.926 1.125
                        CHANNELS 6 Xposition Yposition Zposition Zrotation Xrotation Yrotation
                        End Site
                        {
                          OFFSET -0.014 -0.0193 0.0113
                        }
                      }
                    }
                  }
                }
                JOINT rCarpal2
                {
                  OFFSET -2.0956 0.66 -0.3894
                  CHANNELS 6 Xposition Yposition Zposition Zrotation Xrotation Yrotation
                  JOINT rRing1
                  {
                    OFFSET -5.0395 -0.09 2.4971
                    CHANNELS 6 Xposition Yposition Zposition Zrotation Xrotation Yrotation
                    JOINT rRing2
                    {
                      OFFSET -3.7921 -1.552 1.4806
                      CHANNELS 6 Xposition Yposition Zposition Zrotation Xrotation Yrotation
                      JOINT rRing2_End
                      {
                        OFFSET -1.4655 -1.808 0.9609
                        CHANNELS 6 Xposition Yposition Zposition Zrotation Xrotation Yrotation
                        End Site
                        {
                          OFFSET -0.0147 -0.0181 0.0096
                        }
                      }
                    }
                  }
                  JOINT rPinky1
                  {
                    OFFSET -4.9141 -1.269 0.3592
                    CHANNELS 6 Xposition Yposition Zposition Zrotation Xrotation Yrotation
                    JOINT rPinky2
                    {
                      OFFSET -3.1477 -1.685 0.8462
                      CHANNELS 6 Xposition Yposition Zposition Zrotation Xrotation Yrotation
                      JOINT rPinky2_End
                      {
                        OFFSET -0.8055 -1.585 0.7955
                        CHANNELS 6 Xposition Yposition Zposition Zrotation Xrotation Yrotation
                        End Site
                        {
                          OFFSET -0.0081 -0.0158 0.008
                        }
                      }
                    }
                  }
                }
              }
            }
          }
        }
      }
    }
  }
  JOINT lThigh
  {
    OFFSET 8.367 -8.2066 0.5982
    CHANNELS 6 Xposition Yposition Zposition Zrotation Xrotation Yrotation
    JOINT lShin
    {
      OFFSET 2.1923 -43.463 -0.4932
      CHANNELS 6 Xposition Yposition Zposition Zrotation Xrotation Yrotation
      JOINT lFoot
      {
        OFFSET 0.7333 -45.8593 -2.6451
        CHANNELS 6 Xposition Yposition Zposition Zrotation Xrotation Yrotation
        End Site
        {
          OFFSET 2.6618 -4.2699 12.3931
        }
      }
    }
  }
  JOINT rThigh
  {
    OFFSET -8.367 -8.2066 0.5982
    CHANNELS 6 Xposition Yposition Zposition Zrotation Xrotation Yrotation
    JOINT rShin
    {
      OFFSET -2.1923 -43.463 -0.4931
      CHANNELS 6 Xposition Yposition Zposition Zrotation Xrotation Yrotation
      JOINT rFoot
      {
        OFFSET -0.7333 -45.8593 -2.6451
        CHANNELS 6 Xposition Yposition Zposition Zrotation Xrotation Yrotation
        End Site
        {
          OFFSET -2.6618 -4.2699 12.3931
        }
      }
    }
  }
}
MOTION
Frames:	4
Frame Time:	0.0333333
0 90.174 2.4664 0 0 -0 0 -1.186 -1.5018 0 0 -0 0 9.964 0.2134 0 0 -0 0 13.134 -3.2573 0 0 -0 0 20.686 -1.6905 0 0 -0 0 7.238 -0.1237 0 0 -0 1.7069 20.075 5.0056 0 0 -0 13.6458 -0.047 -4.849 1.66051 0.0835086 5.75766 28.3255 -0.9759 2.2888 -0.0175111 0.895433 15.7816 22.1583 -0.53 10.8316 7.95139e-016 -1.98785e-016 -0 0.786 0.112 2.5817 5.46658e-016 -3.97569e-016 -0 0.3601 -0.878 4.2331 5.96354e-016 0 -0 1.8127 -1.216 2.2227 3.97569e-016 1.98785e-016 9.54166e-015 0.9571 1.114 1.7695 1.49089e-016 -3.97569e-016 -0 4.1246 0.487 4.1451 6.4605e-016 0 3.18055e-015 3.4052 -1.454 2.7682 5.96354e-016 0 3.18055e-015 1.4531 -1.795 1.2713 8.94531e-016 -1.98785e-016 6.36111e-015 5.6954 0.21 2.1184 6.4605e-016 0 3.18055e-015 3.9766 -1.54 2.3863 5.96354e-016 0 3.18055e-015 1.4042 -1.926 1.125 8.94531e-016 -1.98785e-016 6.36111e-015 2.0956 0.66 -0.3894 1.49089e-016 -3.97569e-016 -0 5.0395 -0.09 2.4971 6.4605e-016 0 3.18055e-015 3.7921 -1.552 1.4806 5.96354e-016 0 3.18055e-015 1.4655 -1.808 0.9609 8.94531e-016 -1.98785e-016 6.36111e-015 4.9141 -1.269 0.3591 6.4605e-016 0 3.18055e-015 3.1477 -1.685 0.8462 5.96354e-016 0 3.18055e-015 0.8055 -1.585 0.7955 8.94531e-016 -1.98785e-016 6.36111e-015 -1.7069 20.075 5.0056 0 0 -0 -13.6458 -0.047 -4.849 -1.4496 0.0636048 -5.0245 -28.3255 -0.9759 2.2888 -1.74811 1.20616 -16.8394 -22.1583 -0.53 10.8316 -1.19271e-015 1.98785e-016 -3.18055e-015 -0.786 0.112 2.5817 -3.97569e-016 1.98785e-016 -3.18055e-015 -0.3601 -0.878 4.2331 -2.98177e-016 1.98785e-016 -3.18055e-015 -1.8127 -1.216 2.2227 -2.98177e-016 3.97569e-016 -0 -0.9571 1.114 1.7695 4.96962e-016 0 -6.36111e-015 -4.1246 0.487 4.1451 -9.93923e-017 3.97569e-016 -0 -3.4052 -1.454 2.7682 -8.94531e-016 5.96354e-016 -0 -1.4531 -1.795 1.2713 -3.97569e-016 3.97569e-016 -0 -5.6954 0.21 2.1184 -9.93923e-017 3.97569e-016 -0 -3.9766 -1.54 2.3863 -8.94531e-016 5.96354e-016 -0 -1.4042 -1.926 1.125 -3.97569e-016 3.97569e-016 -0 -2.0956 0.66 -0.3894 4.96962e-016 0 -6.36111e-015 -5.0395 -0.09 2.4971 -9.93923e-017 3.97569e-016 -0 -3.7921 -1.552 1.4806 -8.94531e-016 5.96354e-016 -0 -1.4655 -1.808 0.9609 -3.97569e-016 3.97569e-016 -0 -4.9141 -1.269 0.3592 -9.93923e-017 3.97569e-016 -0 -3.1477 -1.685 0.8462 -8.94531e-016 5.96354e-016 -0 -0.8055 -1.585 0.7955 -3.97569e-016 3.97569e-016 -0 8.367 -8.2066 0.5982 -4.66115 -1.03232 0.120763 2.1923 -43.463 -0.4932 0.00990601 1.55097 0.177175 0.7333 -45.8593 -2.6451 4.65196 -0.54114 -0.255042 -8.367 -8.2066 0.5982 4.66115 -1.03222 -0.120763 -2.1923 -43.463 -0.4931 -0.00990459 1.5509 -0.177176 -0.7333 -45.8593 -2.6451 -4.65196 -0.541171 0.255041 
-1.75453 29.4787 12.859 0.613208 25.9733 179.247 2.22045e-016 -1.186 -1.5018 0.516523 8.26558 -0.787487 -2.22045e-016 9.964 0.2134 1.16773 16.5228 -1.67779 8.88178e-016 13.134 -3.2573 1.16773 16.5228 -1.67779 0 20.686 -1.6905 4.35942 17.306 -0.966402 -8.88178e-016 7.238 -0.1237 8.01364 -0.227917 0.224545 1.7069 20.075 5.0056 11.0025 6.99052 -5.30827e-005 13.6458 -0.047 -4.849 -30.3924 6.36608 -72.7537 28.3255 -0.9759 2.2888 -37.941 -40.1762 -32.7662 22.1583 -0.53 10.8316 -12.1455 -12.1407 -18.6635 0.786 0.112 2.5817 3.18055e-015 4.77083e-015 3.18055e-015 0.3601 -0.878 4.2331 6.36111e-015 1.59028e-015 -0 1.8127 -1.216 2.2227 3.18055e-015 3.18055e-015 -3.18055e-015 0.9571 1.114 1.7695 0 3.18055e-015 -0 4.1246 0.487 4.1451 -2.11868e-030 9.54166e-015 1.27222e-014 3.4052 -1.454 2.7682 3.18055e-015 0 3.18055e-015 1.4531 -1.795 1.2713 3.18055e-015 1.59028e-015 3.18055e-015 5.6954 0.21 2.1184 -2.11868e-030 9.54166e-015 1.27222e-014 3.9766 -1.54 2.3863 3.18055e-015 0 3.18055e-015 1.4042 -1.926 1.125 3.18055e-015 1.59028e-015 3.18055e-015 2.0956 0.66 -0.3894 0 3.18055e-015 -0 5.0395 -0.09 2.4971 -2.11868e-030 9.54166e-015 1.27222e-014 3.7921 -1.552 1.4806 3.18055e-015 0 3.18055e-015 1.4655 -1.808 0.9609 3.18055e-015 1.59028e-015 3.18055e-015 4.9141 -1.269 0.3591 -2.11868e-030 9.54166e-015 1.27222e-014 3.1477 -1.685 0.8462 3.18055e-015 0 3.18055e-015 0.8055 -1.585 0.7955 3.18055e-015 1.59028e-015 3.18055e-015 -1.7069 20.075 5.0056 -11.0058 6.99086 -0.00323369 -13.6458 -0.047 -4.849 35.2811 5.42845 75.1283 -28.3255 -0.9759 2.2888 27.1003 -46.5852 18.4541 -22.1583 -0.53 10.8316 23.439 8.11695 16.6808 -0.786 0.112 2.5817 -3.18055e-015 0 6.36111e-015 -0.3601 -0.878 4.2331 3.18055e-015 1.59028e-015 -3.18055e-015 -1.8127 -1.216 2.2227 6.36111e-015 1.59028e-015 3.18055e-015 -0.9571 1.114 1.7695 -3.18055e-015 -1.59028e-015 -0 -4.1246 0.487 4.1451 -3.18055e-015 -1.59028e-015 -3.18055e-015 -3.4052 -1.454 2.7682 3.18055e-015 1.59028e-015 3.18055e-015 -1.4531 -1.795 1.2713 9.54166e-015 3.18055e-015 3.18055e-015 -5.6954 0.21 2.1184 -3.18055e-015 -1.59028e-015 -3.18055e-015 -3.9766 -1.54 2.3863 3.18055e-015 1.59028e-015 3.18055e-015 -1.4042 -1.926 1.125 9.54166e-015 3.18055e-015 3.18055e-015 -2.0956 0.66 -0.3894 -3.18055e-015 -1.59028e-015 -0 -5.0395 -0.09 2.4971 -3.18055e-015 -1.59028e-015 -3.18055e-015 -3.7921 -1.552 1.4806 3.18055e-015 1.59028e-015 3.18055e-015 -1.4655 -1.808 0.9609 9.54166e-015 3.18055e-015 3.18055e-015 -4.9141 -1.269 0.3592 -3.18055e-015 -1.59028e-015 -3.18055e-015 -3.1477 -1.685 0.8462 3.18055e-015 1.59028e-015 3.18055e-015 -0.8055 -1.585 0.7955 9.54166e-015 3.18055e-015 3.18055e-015 8.367 -8.2066 0.5982 40.2786 -58.1712 17.4051 2.1923 -43.463 -0.4932 -51.7942 35.8284 55.8567 0.7333 -45.8593 -2.6451 -0.920021 12.6452 5.12614 -8.367 -8.2066 0.5982 -83.3069 -61.8717 -60.0317 -2.1923 -43.463 -0.4931 89.9668 69.8563 -93.7571 -0.7333 -45.8593 -2.6451 -2.3782 -3.16256 -6.0034 
-1.75453 29.4787 12.859 0.613208 25.9733 179.247 2.22045e-016 -1.186 -1.5018 0.516523 8.26558 -0.787487 -2.22045e-016 9.964 0.2134 1.16773 16.5228 -1.67779 8.88178e-016 13.134 -3.2573 1.16773 16.5228 -1.67779 0 20.686 -1.6905 4.33032 17.0572 -0.858246 8.88178e-016 7.238 -0.1237 8.01364 -0.227915 0.224545 1.7069 20.075 5.0056 11.0025 6.99052 -5.30827e-005 13.6458 -0.047 -4.849 -30.0906 6.37926 -72.5662 28.3255 -0.9759 2.2888 -37.941 -40.1762 -32.7661 22.1583 -0.53 10.8316 -12.1455 -12.1407 -18.6635 0.786 0.112 2.5817 -2.34321e-006 2.22473e-006 3.50716e-007 0.3601 -0.878 4.2331 2.34321e-006 -2.22473e-006 -3.50715e-007 1.8127 -1.216 2.2227 -2.34321e-006 2.22474e-006 3.50716e-007 0.9571 1.114 1.7695 -3.18055e-015 -3.18055e-015 -0 4.1246 0.487 4.1451 -2.34321e-006 2.22474e-006 3.50716e-007 3.4052 -1.454 2.7682 2.34321e-006 -2.22473e-006 -3.50715e-007 1.4531 -1.795 1.2713 -2.34321e-006 2.22474e-006 3.50716e-007 5.6954 0.21 2.1184 -2.34321e-006 2.22474e-006 3.50716e-007 3.9766 -1.54 2.3863 2.34321e-006 -2.22473e-006 -3.50715e-007 1.4042 -1.926 1.125 -2.34321e-006 2.22474e-006 3.50716e-007 2.0956 0.66 -0.3894 -3.18055e-015 -3.18055e-015 -0 5.0395 -0.09 2.4971 -2.34321e-006 2.22474e-006 3.50716e-007 3.7921 -1.552 1.4806 2.34321e-006 -2.22473e-006 -3.50715e-007 1.4655 -1.808 0.9609 -2.34321e-006 2.22474e-006 3.50716e-007 4.9141 -1.269 0.3591 -2.34321e-006 2.22474e-006 3.50716e-007 3.1477 -1.685 0.8462 2.34321e-006 -2.22473e-006 -3.50715e-007 0.8055 -1.585 0.7955 -2.34321e-006 2.22474e-006 3.50716e-007 -1.7069 20.075 5.0056 -11.0059 6.99086 -0.00323361 -13.6458 -0.047 -4.849 35.4884 5.35373 75.2573 -28.3255 -0.9759 2.2888 26.9134 -46.4631 18.2959 -22.1583 -0.53 10.8316 23.439 8.11693 16.6808 -0.786 0.112 2.5817 6.36111e-015 4.77083e-015 -6.36111e-015 -0.3601 -0.878 4.2331 9.54166e-015 1.59028e-015 -0 -1.8127 -1.216 2.2227 6.36111e-015 6.36111e-015 -0 -0.9571 1.114 1.7695 6.36111e-015 0 -0 -4.1246 0.487 4.1451 9.54166e-015 -1.11319e-014 3.18055e-015 -3.4052 -1.454 2.7682 3.18055e-015 0 -0 -1.4531 -1.795 1.2713 3.18055e-015 3.18055e-015 -9.54166e-015 -5.6954 0.21 2.1184 9.54166e-015 -1.11319e-014 3.18055e-015 -3.9766 -1.54 2.3863 3.18055e-015 0 -0 -1.4042 -1.926 1.125 3.18055e-015 3.18055e-015 -9.54166e-015 -2.0956 0.66 -0.3894 6.36111e-015 0 -0 -5.0395 -0.09 2.4971 9.54166e-015 -1.11319e-014 3.18055e-015 -3.7921 -1.552 1.4806 3.18055e-015 0 -0 -1.4655 -1.808 0.9609 3.18055e-015 3.18055e-015 -9.54166e-015 -4.9141 -1.269 0.3592 9.54166e-015 -1.11319e-014 3.18055e-015 -3.1477 -1.685 0.8462 3.18055e-015 0 -0 -0.8055 -1.585 0.7955 3.18055e-015 3.18055e-015 -9.54166e-015 8.367 -8.2066 0.5982 40.2786 -58.1712 17.4051 2.1923 -43.463 -0.4932 -51.7942 35.8284 55.8567 0.7333 -45.8593 -2.6451 -0.920021 12.6452 5.12614 -8.367 -8.2066 0.5982 -83.3069 -61.8717 -60.0317 -2.1923 -43.463 -0.4931 89.9668 69.8563 -93.7571 -0.7333 -45.8593 -2.6451 -2.3782 -3.16256 -6.0034 
-1.75453 29.4787 12.859 0.613208 25.9733 179.247 0 -1.186 -1.5018 0.516522 8.26558 -0.787488 0 9.964 0.2134 1.16773 16.5228 -1.67779 4.44089e-016 13.134 -3.2573 1.16773 16.5228 -1.67779 4.44089e-016 20.686 -1.6905 4.30191 16.8088 -0.750339 -8.88178e-016 7.238 -0.1237 8.01364 -0.227919 0.224549 1.7069 20.075 5.0056 11.0025 6.99052 -5.29082e-005 13.6458 -0.047 -4.849 -29.7886 6.39337 -72.3786 28.3255 -0.9759 2.2888 -37.941 -40.1762 -32.7661 22.1583 -0.53 10.8316 -12.1455 -12.1407 -18.6635 0.786 0.112 2.5817 -6.36111e-015 1.59028e-015 3.18055e-015 0.3601 -0.878 4.2331 -6.36111e-015 3.18055e-015 -0 1.8127 -1.216 2.2227 3.18055e-015 3.18055e-015 -6.36111e-015 0.9571 1.114 1.7695 -3.18055e-015 1.59028e-015 3.18055e-015 4.1246 0.487 4.1451 -3.18055e-015 9.54166e-015 3.18055e-015 3.4052 -1.454 2.7682 -2.64834e-031 4.77083e-015 3.18055e-015 1.4531 -1.795 1.2713 1.76556e-031 1.59028e-015 -6.36111e-015 5.6954 0.21 2.1184 -3.18055e-015 9.54166e-015 3.18055e-015 3.9766 -1.54 2.3863 -2.64834e-031 4.77083e-015 3.18055e-015 1.4042 -1.926 1.125 1.76556e-031 1.59028e-015 -6.36111e-015 2.0956 0.66 -0.3894 -3.18055e-015 1.59028e-015 3.18055e-015 5.0395 -0.09 2.4971 -3.18055e-015 9.54166e-015 3.18055e-015 3.7921 -1.552 1.4806 -2.64834e-031 4.77083e-015 3.18055e-015 1.4655 -1.808 0.9609 1.76556e-031 1.59028e-015 -6.36111e-015 4.9141 -1.269 0.3591 -3.18055e-015 9.54166e-015 3.18055e-015 3.1477 -1.685 0.8462 -2.64834e-031 4.77083e-015 3.18055e-015 0.8055 -1.585 0.7955 1.76556e-031 1.59028e-015 -6.36111e-015 -1.7069 20.075 5.0056 -11.0058 6.99086 -0.00323361 -13.6458 -0.047 -4.849 35.696 5.27935 75.3868 -28.3255 -0.9759 2.2888 26.7276 -46.3405 18.1386 -22.1583 -0.53 10.8316 23.439 8.11696 16.6808 -0.786 0.112 2.5817 -6.36111e-015 -4.77083e-015 -0 -0.3601 -0.878 4.2331 -3.18055e-015 -4.77083e-015 -3.18055e-015 -1.8127 -1.216 2.2227 -9.54166e-015 -4.77083e-015 -3.18055e-015 -0.9571 1.114 1.7695 -6.36111e-015 0 -0 -4.1246 0.487 4.1451 -6.36111e-015 -1.43125e-014 1.27222e-014 -3.4052 -1.454 2.7682 -1.76556e-031 -3.18055e-015 -3.18055e-015 -1.4531 -1.795 1.2713 3.18055e-015 -4.77083e-015 3.18055e-015 -5.6954 0.21 2.1184 -6.36111e-015 -1.43125e-014 1.27222e-014 -3.9766 -1.54 2.3863 -1.76556e-031 -3.18055e-015 -3.18055e-015 -1.4042 -1.926 1.125 3.18055e-015 -4.77083e-015 3.18055e-015 -2.0956 0.66 -0.3894 -6.36111e-015 0 -0 -5.0395 -0.09 2.4971 -6.36111e-015 -1.43125e-014 1.27222e-014 -3.7921 -1.552 1.4806 -1.76556e-031 -3.18055e-015 -3.18055e-015 -1.4655 -1.808 0.9609 3.18055e-015 -4.77083e-015 3.18055e-015 -4.9141 -1.269 0.3592 -6.36111e-015 -1.43125e-014 1.27222e-014 -3.1477 -1.685 0.8462 -1.76556e-031 -3.18055e-015 -3.18055e-015 -0.8055 -1.585 0.7955 3.18055e-015 -4.77083e-015 3.18055e-015 8.367 -8.2066 0.5982 40.2786 -58.1712 17.405 2.1923 -43.463 -0.4932 -51.7942 35.8283 55.8566 0.7333 -45.8593 -2.6451 -0.920021 12.6452 5.12617 -8.367 -8.2066 0.5982 -83.3069 -61.8717 -60.0317 -2.1923 -43.463 -0.4931 89.9668 69.8563 -93.7571 -0.7333 -45.8593 -2.6451 -2.3782 -3.16254 -6.0034 
